
<svg height="1207pt" viewBox="0.00 0.00 471.00 1207.00" width="471pt" xmlns="http://www.w3.org/2000/svg" xmlns:xlink="http://www.w3.org/1999/xlink">
<g class="graph" id="graph0" transform="scale(1 1) rotate(0) translate(4 1203)">
<title>G</title>
<polygon fill="white" points="-4,4 -4,-1203 467,-1203 467,4 -4,4" stroke="none"/>
<!-- 139831912525384 -->
<g class="node" id="node1"><title>139831912525384</title>
<polygon fill="none" points="90,-1079.5 90,-1125.5 373,-1125.5 373,-1079.5 90,-1079.5" stroke="black"/>
<text font-family="Times,serif" font-size="14.00" text-anchor="middle" x="145" y="-1098.8">conv2d: Conv2D</text>
<polyline fill="none" points="200,-1079.5 200,-1125.5 " stroke="black"/>
<text font-family="Times,serif" font-size="14.00" text-anchor="middle" x="227.5" y="-1110.3">input:</text>
<polyline fill="none" points="200,-1102.5 255,-1102.5 " stroke="black"/>
<text font-family="Times,serif" font-size="14.00" text-anchor="middle" x="227.5" y="-1087.3">output:</text>
<polyline fill="none" points="255,-1079.5 255,-1125.5 " stroke="black"/>
<text font-family="Times,serif" font-size="14.00" text-anchor="middle" x="314" y="-1110.3">(None, 64, 64, 3)</text>
<polyline fill="none" points="255,-1102.5 373,-1102.5 " stroke="black"/>
<text font-family="Times,serif" font-size="14.00" text-anchor="middle" x="314" y="-1087.3">(None, 32, 32, 64)</text>
</g>
<!-- 139831912524712 -->
<g class="node" id="node2"><title>139831912524712</title>
<polygon fill="none" points="67.5,-996.5 67.5,-1042.5 395.5,-1042.5 395.5,-996.5 67.5,-996.5" stroke="black"/>
<text font-family="Times,serif" font-size="14.00" text-anchor="middle" x="145" y="-1015.8">leaky_re_lu: LeakyReLU</text>
<polyline fill="none" points="222.5,-996.5 222.5,-1042.5 " stroke="black"/>
<text font-family="Times,serif" font-size="14.00" text-anchor="middle" x="250" y="-1027.3">input:</text>
<polyline fill="none" points="222.5,-1019.5 277.5,-1019.5 " stroke="black"/>
<text font-family="Times,serif" font-size="14.00" text-anchor="middle" x="250" y="-1004.3">output:</text>
<polyline fill="none" points="277.5,-996.5 277.5,-1042.5 " stroke="black"/>
<text font-family="Times,serif" font-size="14.00" text-anchor="middle" x="336.5" y="-1027.3">(None, 32, 32, 64)</text>
<polyline fill="none" points="277.5,-1019.5 395.5,-1019.5 " stroke="black"/>
<text font-family="Times,serif" font-size="14.00" text-anchor="middle" x="336.5" y="-1004.3">(None, 32, 32, 64)</text>
</g>
<!-- 139831912525384&#45;&gt;139831912524712 -->
<g class="edge" id="edge2"><title>139831912525384-&gt;139831912524712</title>
<path d="M231.5,-1079.37C231.5,-1071.15 231.5,-1061.66 231.5,-1052.73" fill="none" stroke="black"/>
<polygon fill="black" points="235,-1052.61 231.5,-1042.61 228,-1052.61 235,-1052.61" stroke="black"/>
</g>
<!-- 139831912523872 -->
<g class="node" id="node3"><title>139831912523872</title>
<polygon fill="none" points="80,-913.5 80,-959.5 383,-959.5 383,-913.5 80,-913.5" stroke="black"/>
<text font-family="Times,serif" font-size="14.00" text-anchor="middle" x="141.5" y="-932.8">conv2d_1: Conv2D</text>
<polyline fill="none" points="203,-913.5 203,-959.5 " stroke="black"/>
<text font-family="Times,serif" font-size="14.00" text-anchor="middle" x="230.5" y="-944.3">input:</text>
<polyline fill="none" points="203,-936.5 258,-936.5 " stroke="black"/>
<text font-family="Times,serif" font-size="14.00" text-anchor="middle" x="230.5" y="-921.3">output:</text>
<polyline fill="none" points="258,-913.5 258,-959.5 " stroke="black"/>
<text font-family="Times,serif" font-size="14.00" text-anchor="middle" x="320.5" y="-944.3">(None, 32, 32, 64)</text>
<polyline fill="none" points="258,-936.5 383,-936.5 " stroke="black"/>
<text font-family="Times,serif" font-size="14.00" text-anchor="middle" x="320.5" y="-921.3">(None, 16, 16, 128)</text>
</g>
<!-- 139831912524712&#45;&gt;139831912523872 -->
<g class="edge" id="edge3"><title>139831912524712-&gt;139831912523872</title>
<path d="M231.5,-996.366C231.5,-988.152 231.5,-978.658 231.5,-969.725" fill="none" stroke="black"/>
<polygon fill="black" points="235,-969.607 231.5,-959.607 228,-969.607 235,-969.607" stroke="black"/>
</g>
<!-- 139831912523760 -->
<g class="node" id="node4"><title>139831912523760</title>
<polygon fill="none" points="0,-830.5 0,-876.5 463,-876.5 463,-830.5 0,-830.5" stroke="black"/>
<text font-family="Times,serif" font-size="14.00" text-anchor="middle" x="141.5" y="-849.8">batch_normalization_v1: BatchNormalizationV1</text>
<polyline fill="none" points="283,-830.5 283,-876.5 " stroke="black"/>
<text font-family="Times,serif" font-size="14.00" text-anchor="middle" x="310.5" y="-861.3">input:</text>
<polyline fill="none" points="283,-853.5 338,-853.5 " stroke="black"/>
<text font-family="Times,serif" font-size="14.00" text-anchor="middle" x="310.5" y="-838.3">output:</text>
<polyline fill="none" points="338,-830.5 338,-876.5 " stroke="black"/>
<text font-family="Times,serif" font-size="14.00" text-anchor="middle" x="400.5" y="-861.3">(None, 16, 16, 128)</text>
<polyline fill="none" points="338,-853.5 463,-853.5 " stroke="black"/>
<text font-family="Times,serif" font-size="14.00" text-anchor="middle" x="400.5" y="-838.3">(None, 16, 16, 128)</text>
</g>
<!-- 139831912523872&#45;&gt;139831912523760 -->
<g class="edge" id="edge4"><title>139831912523872-&gt;139831912523760</title>
<path d="M231.5,-913.366C231.5,-905.152 231.5,-895.658 231.5,-886.725" fill="none" stroke="black"/>
<polygon fill="black" points="235,-886.607 231.5,-876.607 228,-886.607 235,-886.607" stroke="black"/>
</g>
<!-- 139831912525664 -->
<g class="node" id="node5"><title>139831912525664</title>
<polygon fill="none" points="57.5,-747.5 57.5,-793.5 405.5,-793.5 405.5,-747.5 57.5,-747.5" stroke="black"/>
<text font-family="Times,serif" font-size="14.00" text-anchor="middle" x="141.5" y="-766.8">leaky_re_lu_1: LeakyReLU</text>
<polyline fill="none" points="225.5,-747.5 225.5,-793.5 " stroke="black"/>
<text font-family="Times,serif" font-size="14.00" text-anchor="middle" x="253" y="-778.3">input:</text>
<polyline fill="none" points="225.5,-770.5 280.5,-770.5 " stroke="black"/>
<text font-family="Times,serif" font-size="14.00" text-anchor="middle" x="253" y="-755.3">output:</text>
<polyline fill="none" points="280.5,-747.5 280.5,-793.5 " stroke="black"/>
<text font-family="Times,serif" font-size="14.00" text-anchor="middle" x="343" y="-778.3">(None, 16, 16, 128)</text>
<polyline fill="none" points="280.5,-770.5 405.5,-770.5 " stroke="black"/>
<text font-family="Times,serif" font-size="14.00" text-anchor="middle" x="343" y="-755.3">(None, 16, 16, 128)</text>
</g>
<!-- 139831912523760&#45;&gt;139831912525664 -->
<g class="edge" id="edge5"><title>139831912523760-&gt;139831912525664</title>
<path d="M231.5,-830.366C231.5,-822.152 231.5,-812.658 231.5,-803.725" fill="none" stroke="black"/>
<polygon fill="black" points="235,-803.607 231.5,-793.607 228,-803.607 235,-803.607" stroke="black"/>
</g>
<!-- 139831912523256 -->
<g class="node" id="node6"><title>139831912523256</title>
<polygon fill="none" points="80,-664.5 80,-710.5 383,-710.5 383,-664.5 80,-664.5" stroke="black"/>
<text font-family="Times,serif" font-size="14.00" text-anchor="middle" x="141.5" y="-683.8">conv2d_2: Conv2D</text>
<polyline fill="none" points="203,-664.5 203,-710.5 " stroke="black"/>
<text font-family="Times,serif" font-size="14.00" text-anchor="middle" x="230.5" y="-695.3">input:</text>
<polyline fill="none" points="203,-687.5 258,-687.5 " stroke="black"/>
<text font-family="Times,serif" font-size="14.00" text-anchor="middle" x="230.5" y="-672.3">output:</text>
<polyline fill="none" points="258,-664.5 258,-710.5 " stroke="black"/>
<text font-family="Times,serif" font-size="14.00" text-anchor="middle" x="320.5" y="-695.3">(None, 16, 16, 128)</text>
<polyline fill="none" points="258,-687.5 383,-687.5 " stroke="black"/>
<text font-family="Times,serif" font-size="14.00" text-anchor="middle" x="320.5" y="-672.3">(None, 8, 8, 256)</text>
</g>
<!-- 139831912525664&#45;&gt;139831912523256 -->
<g class="edge" id="edge6"><title>139831912525664-&gt;139831912523256</title>
<path d="M231.5,-747.366C231.5,-739.152 231.5,-729.658 231.5,-720.725" fill="none" stroke="black"/>
<polygon fill="black" points="235,-720.607 231.5,-710.607 228,-720.607 235,-720.607" stroke="black"/>
</g>
<!-- 139831912522752 -->
<g class="node" id="node7"><title>139831912522752</title>
<polygon fill="none" points="0.5,-581.5 0.5,-627.5 462.5,-627.5 462.5,-581.5 0.5,-581.5" stroke="black"/>
<text font-family="Times,serif" font-size="14.00" text-anchor="middle" x="148.5" y="-600.8">batch_normalization_v1_1: BatchNormalizationV1</text>
<polyline fill="none" points="296.5,-581.5 296.5,-627.5 " stroke="black"/>
<text font-family="Times,serif" font-size="14.00" text-anchor="middle" x="324" y="-612.3">input:</text>
<polyline fill="none" points="296.5,-604.5 351.5,-604.5 " stroke="black"/>
<text font-family="Times,serif" font-size="14.00" text-anchor="middle" x="324" y="-589.3">output:</text>
<polyline fill="none" points="351.5,-581.5 351.5,-627.5 " stroke="black"/>
<text font-family="Times,serif" font-size="14.00" text-anchor="middle" x="407" y="-612.3">(None, 8, 8, 256)</text>
<polyline fill="none" points="351.5,-604.5 462.5,-604.5 " stroke="black"/>
<text font-family="Times,serif" font-size="14.00" text-anchor="middle" x="407" y="-589.3">(None, 8, 8, 256)</text>
</g>
<!-- 139831912523256&#45;&gt;139831912522752 -->
<g class="edge" id="edge7"><title>139831912523256-&gt;139831912522752</title>
<path d="M231.5,-664.366C231.5,-656.152 231.5,-646.658 231.5,-637.725" fill="none" stroke="black"/>
<polygon fill="black" points="235,-637.607 231.5,-627.607 228,-637.607 235,-637.607" stroke="black"/>
</g>
<!-- 139831912522416 -->
<g class="node" id="node8"><title>139831912522416</title>
<polygon fill="none" points="64.5,-498.5 64.5,-544.5 398.5,-544.5 398.5,-498.5 64.5,-498.5" stroke="black"/>
<text font-family="Times,serif" font-size="14.00" text-anchor="middle" x="148.5" y="-517.8">leaky_re_lu_2: LeakyReLU</text>
<polyline fill="none" points="232.5,-498.5 232.5,-544.5 " stroke="black"/>
<text font-family="Times,serif" font-size="14.00" text-anchor="middle" x="260" y="-529.3">input:</text>
<polyline fill="none" points="232.5,-521.5 287.5,-521.5 " stroke="black"/>
<text font-family="Times,serif" font-size="14.00" text-anchor="middle" x="260" y="-506.3">output:</text>
<polyline fill="none" points="287.5,-498.5 287.5,-544.5 " stroke="black"/>
<text font-family="Times,serif" font-size="14.00" text-anchor="middle" x="343" y="-529.3">(None, 8, 8, 256)</text>
<polyline fill="none" points="287.5,-521.5 398.5,-521.5 " stroke="black"/>
<text font-family="Times,serif" font-size="14.00" text-anchor="middle" x="343" y="-506.3">(None, 8, 8, 256)</text>
</g>
<!-- 139831912522752&#45;&gt;139831912522416 -->
<g class="edge" id="edge8"><title>139831912522752-&gt;139831912522416</title>
<path d="M231.5,-581.366C231.5,-573.152 231.5,-563.658 231.5,-554.725" fill="none" stroke="black"/>
<polygon fill="black" points="235,-554.607 231.5,-544.607 228,-554.607 235,-554.607" stroke="black"/>
</g>
<!-- 139831912524432 -->
<g class="node" id="node9"><title>139831912524432</title>
<polygon fill="none" points="87,-415.5 87,-461.5 376,-461.5 376,-415.5 87,-415.5" stroke="black"/>
<text font-family="Times,serif" font-size="14.00" text-anchor="middle" x="148.5" y="-434.8">conv2d_3: Conv2D</text>
<polyline fill="none" points="210,-415.5 210,-461.5 " stroke="black"/>
<text font-family="Times,serif" font-size="14.00" text-anchor="middle" x="237.5" y="-446.3">input:</text>
<polyline fill="none" points="210,-438.5 265,-438.5 " stroke="black"/>
<text font-family="Times,serif" font-size="14.00" text-anchor="middle" x="237.5" y="-423.3">output:</text>
<polyline fill="none" points="265,-415.5 265,-461.5 " stroke="black"/>
<text font-family="Times,serif" font-size="14.00" text-anchor="middle" x="320.5" y="-446.3">(None, 8, 8, 256)</text>
<polyline fill="none" points="265,-438.5 376,-438.5 " stroke="black"/>
<text font-family="Times,serif" font-size="14.00" text-anchor="middle" x="320.5" y="-423.3">(None, 4, 4, 512)</text>
</g>
<!-- 139831912522416&#45;&gt;139831912524432 -->
<g class="edge" id="edge9"><title>139831912522416-&gt;139831912524432</title>
<path d="M231.5,-498.366C231.5,-490.152 231.5,-480.658 231.5,-471.725" fill="none" stroke="black"/>
<polygon fill="black" points="235,-471.607 231.5,-461.607 228,-471.607 235,-471.607" stroke="black"/>
</g>
<!-- 139831924458832 -->
<g class="node" id="node10"><title>139831924458832</title>
<polygon fill="none" points="0.5,-332.5 0.5,-378.5 462.5,-378.5 462.5,-332.5 0.5,-332.5" stroke="black"/>
<text font-family="Times,serif" font-size="14.00" text-anchor="middle" x="148.5" y="-351.8">batch_normalization_v1_2: BatchNormalizationV1</text>
<polyline fill="none" points="296.5,-332.5 296.5,-378.5 " stroke="black"/>
<text font-family="Times,serif" font-size="14.00" text-anchor="middle" x="324" y="-363.3">input:</text>
<polyline fill="none" points="296.5,-355.5 351.5,-355.5 " stroke="black"/>
<text font-family="Times,serif" font-size="14.00" text-anchor="middle" x="324" y="-340.3">output:</text>
<polyline fill="none" points="351.5,-332.5 351.5,-378.5 " stroke="black"/>
<text font-family="Times,serif" font-size="14.00" text-anchor="middle" x="407" y="-363.3">(None, 4, 4, 512)</text>
<polyline fill="none" points="351.5,-355.5 462.5,-355.5 " stroke="black"/>
<text font-family="Times,serif" font-size="14.00" text-anchor="middle" x="407" y="-340.3">(None, 4, 4, 512)</text>
</g>
<!-- 139831912524432&#45;&gt;139831924458832 -->
<g class="edge" id="edge10"><title>139831912524432-&gt;139831924458832</title>
<path d="M231.5,-415.366C231.5,-407.152 231.5,-397.658 231.5,-388.725" fill="none" stroke="black"/>
<polygon fill="black" points="235,-388.607 231.5,-378.607 228,-388.607 235,-388.607" stroke="black"/>
</g>
<!-- 139831924459056 -->
<g class="node" id="node11"><title>139831924459056</title>
<polygon fill="none" points="64.5,-249.5 64.5,-295.5 398.5,-295.5 398.5,-249.5 64.5,-249.5" stroke="black"/>
<text font-family="Times,serif" font-size="14.00" text-anchor="middle" x="148.5" y="-268.8">leaky_re_lu_3: LeakyReLU</text>
<polyline fill="none" points="232.5,-249.5 232.5,-295.5 " stroke="black"/>
<text font-family="Times,serif" font-size="14.00" text-anchor="middle" x="260" y="-280.3">input:</text>
<polyline fill="none" points="232.5,-272.5 287.5,-272.5 " stroke="black"/>
<text font-family="Times,serif" font-size="14.00" text-anchor="middle" x="260" y="-257.3">output:</text>
<polyline fill="none" points="287.5,-249.5 287.5,-295.5 " stroke="black"/>
<text font-family="Times,serif" font-size="14.00" text-anchor="middle" x="343" y="-280.3">(None, 4, 4, 512)</text>
<polyline fill="none" points="287.5,-272.5 398.5,-272.5 " stroke="black"/>
<text font-family="Times,serif" font-size="14.00" text-anchor="middle" x="343" y="-257.3">(None, 4, 4, 512)</text>
</g>
<!-- 139831924458832&#45;&gt;139831924459056 -->
<g class="edge" id="edge11"><title>139831924458832-&gt;139831924459056</title>
<path d="M231.5,-332.366C231.5,-324.152 231.5,-314.658 231.5,-305.725" fill="none" stroke="black"/>
<polygon fill="black" points="235,-305.607 231.5,-295.607 228,-305.607 235,-305.607" stroke="black"/>
</g>
<!-- 139831924458608 -->
<g class="node" id="node12"><title>139831924458608</title>
<polygon fill="none" points="100.5,-166.5 100.5,-212.5 362.5,-212.5 362.5,-166.5 100.5,-166.5" stroke="black"/>
<text font-family="Times,serif" font-size="14.00" text-anchor="middle" x="148.5" y="-185.8">flatten: Flatten</text>
<polyline fill="none" points="196.5,-166.5 196.5,-212.5 " stroke="black"/>
<text font-family="Times,serif" font-size="14.00" text-anchor="middle" x="224" y="-197.3">input:</text>
<polyline fill="none" points="196.5,-189.5 251.5,-189.5 " stroke="black"/>
<text font-family="Times,serif" font-size="14.00" text-anchor="middle" x="224" y="-174.3">output:</text>
<polyline fill="none" points="251.5,-166.5 251.5,-212.5 " stroke="black"/>
<text font-family="Times,serif" font-size="14.00" text-anchor="middle" x="307" y="-197.3">(None, 4, 4, 512)</text>
<polyline fill="none" points="251.5,-189.5 362.5,-189.5 " stroke="black"/>
<text font-family="Times,serif" font-size="14.00" text-anchor="middle" x="307" y="-174.3">(None, 8192)</text>
</g>
<!-- 139831924459056&#45;&gt;139831924458608 -->
<g class="edge" id="edge12"><title>139831924459056-&gt;139831924458608</title>
<path d="M231.5,-249.366C231.5,-241.152 231.5,-231.658 231.5,-222.725" fill="none" stroke="black"/>
<polygon fill="black" points="235,-222.607 231.5,-212.607 228,-222.607 235,-222.607" stroke="black"/>
</g>
<!-- 139831924459392 -->
<g class="node" id="node13"><title>139831924459392</title>
<polygon fill="none" points="115,-83.5 115,-129.5 348,-129.5 348,-83.5 115,-83.5" stroke="black"/>
<text font-family="Times,serif" font-size="14.00" text-anchor="middle" x="159.5" y="-102.8">dense: Dense</text>
<polyline fill="none" points="204,-83.5 204,-129.5 " stroke="black"/>
<text font-family="Times,serif" font-size="14.00" text-anchor="middle" x="231.5" y="-114.3">input:</text>
<polyline fill="none" points="204,-106.5 259,-106.5 " stroke="black"/>
<text font-family="Times,serif" font-size="14.00" text-anchor="middle" x="231.5" y="-91.3">output:</text>
<polyline fill="none" points="259,-83.5 259,-129.5 " stroke="black"/>
<text font-family="Times,serif" font-size="14.00" text-anchor="middle" x="303.5" y="-114.3">(None, 8192)</text>
<polyline fill="none" points="259,-106.5 348,-106.5 " stroke="black"/>
<text font-family="Times,serif" font-size="14.00" text-anchor="middle" x="303.5" y="-91.3">(None, 1)</text>
</g>
<!-- 139831924458608&#45;&gt;139831924459392 -->
<g class="edge" id="edge13"><title>139831924458608-&gt;139831924459392</title>
<path d="M231.5,-166.366C231.5,-158.152 231.5,-148.658 231.5,-139.725" fill="none" stroke="black"/>
<polygon fill="black" points="235,-139.607 231.5,-129.607 228,-139.607 235,-139.607" stroke="black"/>
</g>
<!-- 139833666478320 -->
<g class="node" id="node14"><title>139833666478320</title>
<polygon fill="none" points="102.5,-0.5 102.5,-46.5 360.5,-46.5 360.5,-0.5 102.5,-0.5" stroke="black"/>
<text font-family="Times,serif" font-size="14.00" text-anchor="middle" x="169.5" y="-19.8">activation: Activation</text>
<polyline fill="none" points="236.5,-0.5 236.5,-46.5 " stroke="black"/>
<text font-family="Times,serif" font-size="14.00" text-anchor="middle" x="264" y="-31.3">input:</text>
<polyline fill="none" points="236.5,-23.5 291.5,-23.5 " stroke="black"/>
<text font-family="Times,serif" font-size="14.00" text-anchor="middle" x="264" y="-8.3">output:</text>
<polyline fill="none" points="291.5,-0.5 291.5,-46.5 " stroke="black"/>
<text font-family="Times,serif" font-size="14.00" text-anchor="middle" x="326" y="-31.3">(None, 1)</text>
<polyline fill="none" points="291.5,-23.5 360.5,-23.5 " stroke="black"/>
<text font-family="Times,serif" font-size="14.00" text-anchor="middle" x="326" y="-8.3">(None, 1)</text>
</g>
<!-- 139831924459392&#45;&gt;139833666478320 -->
<g class="edge" id="edge14"><title>139831924459392-&gt;139833666478320</title>
<path d="M231.5,-83.3664C231.5,-75.1516 231.5,-65.6579 231.5,-56.7252" fill="none" stroke="black"/>
<polygon fill="black" points="235,-56.6068 231.5,-46.6068 228,-56.6069 235,-56.6068" stroke="black"/>
</g>
<!-- 139831912863448 -->
<g class="node" id="node15"><title>139831912863448</title>
<polygon fill="none" points="172.5,-1162.5 172.5,-1198.5 290.5,-1198.5 290.5,-1162.5 172.5,-1162.5" stroke="black"/>
<text font-family="Times,serif" font-size="14.00" text-anchor="middle" x="231.5" y="-1176.8">139831912863448</text>
</g>
<!-- 139831912863448&#45;&gt;139831912525384 -->
<g class="edge" id="edge1"><title>139831912863448-&gt;139831912525384</title>
<path d="M231.5,-1162.25C231.5,-1154.36 231.5,-1144.75 231.5,-1135.6" fill="none" stroke="black"/>
<polygon fill="black" points="235,-1135.59 231.5,-1125.59 228,-1135.59 235,-1135.59" stroke="black"/>
</g>
</g>
</svg>